<svg width="200" height="300" viewBox="0 0 200 300" xmlns="http://www.w3.org/2000/svg">
  <!-- Poste del cartel -->
  <rect x="90" y="200" width="20" height="100" fill="#8B4513" stroke="#654321" stroke-width="2"/>
  
  <!-- Base del poste -->
  <ellipse cx="100" cy="300" rx="25" ry="8" fill="#654321"/>
  
  <!-- Cartel principal -->
  <rect x="30" y="20" width="140" height="180" rx="10" ry="10" fill="#FFD700" stroke="#B8860B" stroke-width="3"/>
  
  <!-- Sombra del cartel -->
  <rect x="33" y="23" width="140" height="180" rx="10" ry="10" fill="#E6C200" opacity="0.3"/>
  
  <!-- Símbolo de exclamación -->
  <!-- Línea vertical del ! -->
  <rect x="90" y="50" width="20" height="100" rx="10" ry="10" fill="#FF4500"/>
  
  <!-- Punto del ! -->
  <circle cx="100" cy="170" r="12" fill="#FF4500"/>
  
  <!-- Efectos de brillo en el cartel -->
  <rect x="40" y="30" width="8" height="60" rx="4" ry="4" fill="#FFFF99" opacity="0.6"/>
  <rect x="50" y="40" width="4" height="30" rx="2" ry="2" fill="#FFFF99" opacity="0.4"/>
  
  <!-- Tornillos decorativos -->
  <circle cx="50" cy="40" r="3" fill="#C0C0C0" stroke="#808080" stroke-width="1"/>
  <circle cx="150" cy="40" r="3" fill="#C0C0C0" stroke="#808080" stroke-width="1"/>
  <circle cx="50" cy="180" r="3" fill="#C0C0C0" stroke="#808080" stroke-width="1"/>
  <circle cx="150" cy="180" r="3" fill="#C0C0C0" stroke="#808080" stroke-width="1"/>
  
  <!-- Líneas de los tornillos -->
  <line x1="48" y1="38" x2="52" y2="42" stroke="#808080" stroke-width="0.5"/>
  <line x1="52" y1="38" x2="48" y2="42" stroke="#808080" stroke-width="0.5"/>
  <line x1="148" y1="38" x2="152" y2="42" stroke="#808080" stroke-width="0.5"/>
  <line x1="152" y1="38" x2="148" y2="42" stroke="#808080" stroke-width="0.5"/>
  <line x1="48" y1="178" x2="52" y2="182" stroke="#808080" stroke-width="0.5"/>
  <line x1="52" y1="178" x2="48" y2="182" stroke="#808080" stroke-width="0.5"/>
  <line x1="148" y1="178" x2="152" y2="182" stroke="#808080" stroke-width="0.5"/>
  <line x1="152" y1="178" x2="148" y2="182" stroke="#808080" stroke-width="0.5"/>
</svg>