<svg width="800" height="600" viewBox="0 0 800 600" xmlns="http://www.w3.org/2000/svg">
  <!-- Símbolos esotéricos y misteriosos en blanco -->
  
  <!-- Pentagrama invertido -->
  <g transform="translate(150, 100)">
    <polygon points="0,-40 38,30 -24,12 24,12 -38,30" 
             fill="none" stroke="white" stroke-width="3"/>
    <circle cx="0" cy="0" r="45" fill="none" stroke="white" stroke-width="2"/>
  </g>
  
  <!-- Símbolo de Ankh -->
  <g transform="translate(400, 120)">
    <circle cx="0" cy="-20" r="15" fill="none" stroke="white" stroke-width="3"/>
    <line x1="0" y1="-5" x2="0" y2="40" stroke="white" stroke-width="3"/>
    <line x1="-20" y1="15" x2="20" y2="15" stroke="white" stroke-width="3"/>
  </g>
  
  <!-- Ojo de Horus -->
  <g transform="translate(650, 100)">
    <path d="M -30,0 Q -15,-15 0,0 Q 15,-15 30,0 Q 15,10 0,5 Q -15,10 -30,0 Z" 
          fill="none" stroke="white" stroke-width="2"/>
    <circle cx="0" cy="0" r="8" fill="white"/>
    <circle cx="0" cy="0" r="4" fill="none" stroke="black" stroke-width="1"/>
    <line x1="30" y1="0" x2="40" y2="-5" stroke="white" stroke-width="2"/>
    <line x1="30" y1="0" x2="40" y2="10" stroke="white" stroke-width="2"/>
  </g>
  
  <!-- Hexagrama (Estrella de David) -->
  <g transform="translate(100, 300)">
    <polygon points="0,-35 30,17.5 -30,17.5" fill="none" stroke="white" stroke-width="2"/>
    <polygon points="0,35 -30,-17.5 30,-17.5" fill="none" stroke="white" stroke-width="2"/>
  </g>
  
  <!-- Símbolo Ouroboros (serpiente que se muerde la cola) -->
  <g transform="translate(350, 280)">
    <circle cx="0" cy="0" r="40" fill="none" stroke="white" stroke-width="3"/>
    <path d="M 35,15 Q 45,5 40,-10 Q 35,-20 25,-15 Q 20,-10 25,-5" 
          fill="none" stroke="white" stroke-width="3"/>
    <circle cx="30" cy="-8" r="3" fill="white"/>
    <path d="M 20,-12 L 15,-8 L 20,-4" fill="none" stroke="white" stroke-width="2"/>
  </g>
  
  <!-- Triskelion celta -->
  <g transform="translate(600, 300)">
    <g transform="rotate(0)">
      <path d="M 0,0 Q 20,-30 40,-10 Q 30,0 20,0" fill="none" stroke="white" stroke-width="3"/>
    </g>
    <g transform="rotate(120)">
      <path d="M 0,0 Q 20,-30 40,-10 Q 30,0 20,0" fill="none" stroke="white" stroke-width="3"/>
    </g>
    <g transform="rotate(240)">
      <path d="M 0,0 Q 20,-30 40,-10 Q 30,0 20,0" fill="none" stroke="white" stroke-width="3"/>
    </g>
  </g>
  
  <!-- Runas nórdicas -->
  <g transform="translate(150, 450)" fill="white">
    <!-- Runa Algiz -->
    <g transform="translate(0, 0)">
      <line x1="0" y1="0" x2="0" y2="40" stroke="white" stroke-width="3"/>
      <line x1="0" y1="10" x2="-15" y2="-5" stroke="white" stroke-width="3"/>
      <line x1="0" y1="10" x2="15" y2="-5" stroke="white" stroke-width="3"/>
    </g>
    
    <!-- Runa Fehu -->
    <g transform="translate(40, 0)">
      <line x1="0" y1="0" x2="0" y2="40" stroke="white" stroke-width="3"/>
      <line x1="0" y1="0" x2="20" y2="0" stroke="white" stroke-width="3"/>
      <line x1="0" y1="20" x2="15" y2="20" stroke="white" stroke-width="3"/>
      <line x1="20" y1="0" x2="15" y2="20" stroke="white" stroke-width="3"/>
    </g>
    
    <!-- Runa Thurisaz -->
    <g transform="translate(80, 0)">
      <line x1="0" y1="0" x2="0" y2="40" stroke="white" stroke-width="3"/>
      <polygon points="0,5 25,15 0,25" fill="none" stroke="white" stroke-width="3"/>
    </g>
  </g>
  
  <!-- Símbolo de Caos -->
  <g transform="translate(400, 450)">
    <line x1="-30" y1="0" x2="30" y2="0" stroke="white" stroke-width="3"/>
    <line x1="0" y1="-30" x2="0" y2="30" stroke="white" stroke-width="3"/>
    <line x1="-21" y1="-21" x2="21" y2="21" stroke="white" stroke-width="3"/>
    <line x1="21" y1="-21" x2="-21" y2="21" stroke="white" stroke-width="3"/>
    <circle cx="0" cy="0" r="8" fill="none" stroke="white" stroke-width="2"/>
  </g>
  
  <!-- Sigilo mágico -->
  <g transform="translate(650, 450)">
    <path d="M 0,-30 L 15,-15 L 30,0 L 15,15 L 0,30 L -15,15 L -30,0 L -15,-15 Z" 
          fill="none" stroke="white" stroke-width="2"/>
    <path d="M 0,-20 Q 10,-10 0,0 Q -10,10 0,20 Q 10,10 0,0 Q -10,-10 0,-20" 
          fill="none" stroke="white" stroke-width="2"/>
    <circle cx="0" cy="0" r="5" fill="white"/>
  </g>
  
  <!-- Símbolos alquímicos dispersos -->
  <!-- Azufre -->
  <g transform="translate(250, 200)">
    <circle cx="0" cy="-10" r="8" fill="none" stroke="white" stroke-width="2"/>
    <polygon points="-10,5 10,5 0,20" fill="none" stroke="white" stroke-width="2"/>
    <line x1="-15" y1="0" x2="15" y2="0" stroke="white" stroke-width="2"/>
  </g>
  
  <!-- Mercurio -->
  <g transform="translate(550, 200)">
    <circle cx="0" cy="0" r="10" fill="none" stroke="white" stroke-width="2"/>
    <line x1="0" y1="-10" x2="0" y2="-25" stroke="white" stroke-width="2"/>
    <line x1="-8" y1="-20" x2="8" y2="-20" stroke="white" stroke-width="2"/>
    <line x1="0" y1="10" x2="0" y2="25" stroke="white" stroke-width="2"/>
    <line x1="-8" y1="20" x2="8" y2="20" stroke="white" stroke-width="2"/>
  </g>
  
  <!-- Símbolos menores dispersos -->
  <circle cx="50" cy="50" r="3" fill="white"/>
  <circle cx="750" cy="80" r="2" fill="white"/>
  <circle cx="80" cy="550" r="4" fill="white"/>
  <circle cx="720" cy="520" r="3" fill="white"/>
  
  <!-- Líneas místicas conectoras -->
  <line x1="50" y1="50" x2="150" y2="100" stroke="white" stroke-width="1" opacity="0.3"/>
  <line x1="650" y1="100" x2="750" y2="80" stroke="white" stroke-width="1" opacity="0.3"/>
  <line x1="80" y1="550" x2="150" y2="450" stroke="white" stroke-width="1" opacity="0.3"/>
  <line x1="650" y1="450" x2="720" y2="520" stroke="white" stroke-width="1" opacity="0.3"/>
</svg>