<svg width="128" height="64" viewBox="0 0 128 64" xmlns="http://www.w3.org/2000/svg">
  <!-- Fondo base de tierra -->
  <rect width="128" height="64" fill="#8B4513"/>
  
  <!-- Capa de pasto -->
  <rect x="0" y="0" width="128" height="20" fill="#228B22"/>
  <rect x="0" y="20" width="128" height="8" fill="#32CD32" opacity="0.7"/>
  
  <!-- Briznas de pasto individuales -->
  <path d="M10 20 Q12 10 14 20" stroke="#006400" stroke-width="2" fill="none"/>
  <path d="M18 20 Q20 8 22 20" stroke="#228B22" stroke-width="2" fill="none"/>
  <path d="M26 20 Q28 12 30 20" stroke="#006400" stroke-width="1.5" fill="none"/>
  <path d="M34 20 Q36 6 38 20" stroke="#32CD32" stroke-width="2" fill="none"/>
  <path d="M42 20 Q44 14 46 20" stroke="#006400" stroke-width="1.5" fill="none"/>
  <path d="M50 20 Q52 9 54 20" stroke="#228B22" stroke-width="2" fill="none"/>
  <path d="M58 20 Q60 11 62 20" stroke="#006400" stroke-width="1.5" fill="none"/>
  <path d="M66 20 Q68 7 70 20" stroke="#32CD32" stroke-width="2" fill="none"/>
  <path d="M74 20 Q76 13 78 20" stroke="#006400" stroke-width="1.5" fill="none"/>
  <path d="M82 20 Q84 8 86 20" stroke="#228B22" stroke-width="2" fill="none"/>
  <path d="M90 20 Q92 15 94 20" stroke="#006400" stroke-width="1.5" fill="none"/>
  <path d="M98 20 Q100 10 102 20" stroke="#32CD32" stroke-width="2" fill="none"/>
  <path d="M106 20 Q108 12 110 20" stroke="#006400" stroke-width="1.5" fill="none"/>
  <path d="M114 20 Q116 9 118 20" stroke="#228B22" stroke-width="2" fill="none"/>
  
  <!-- Tierra visible debajo -->
  <rect x="0" y="28" width="128" height="12" fill="#A0522D"/>
  <rect x="0" y="40" width="128" height="24" fill="#8B4513"/>
  
  <!-- Pequeñas piedras en la tierra -->
  <circle cx="20" cy="45" r="2" fill="#696969"/>
  <circle cx="60" cy="52" r="1.5" fill="#778899"/>
  <circle cx="95" cy="48" r="2" fill="#696969"/>
  
  <!-- Líneas de textura en la tierra -->
  <line x1="0" y1="35" x2="128" y2="35" stroke="#5D4037" stroke-width="1" opacity="0.5"/>
  <line x1="0" y1="50" x2="128" y2="50" stroke="#5D4037" stroke-width="1" opacity="0.4"/>
</svg>